<?xml version="1.0" encoding="UTF-8"?>
<svg id="uuid-41dbdd42-fd61-47bb-8f88-a9e4b96581d7" data-name="Layer 2" xmlns="http://www.w3.org/2000/svg" viewBox="0 0 215.22 236.96">
  <g id="uuid-68b71576-83d5-4b61-a80b-5fbb3adcd08e" data-name="Layer 1">
    <rect width="215.22" height="236.96" fill="#fff"/>
    <g>
      <path d="m183.6,151.51h-83.55c10.35-4.12,16.95-15.11,17.33-25.91-.23-3.6-.83-7.12-2.18-10.27,0,0-25.72-55.8-26.62-57.37l-26.33,59.17c-2.62,9.83-.67,20.85,7.05,27.9,3,2.77,6.3,5.33,9.9,6.49l-55.95.04c3.15-3.3,5.25-7.05,7.35-10.8L81.15,26.46h46.27s8.1,18.29,8.1,18.29l43.58,101.21s1.22,3.41,4.5,5.55Z" fill="#c10230" stroke="#c10230" stroke-linecap="square" stroke-miterlimit="2" stroke-width=".75"/>
      <path d="m87.3,119.15h-20.85c-.15-3.52,1.35-6.37,2.47-9.37,2.48-5.4,4.95-10.73,7.95-15.82-2.17,10.05,2.55,19.35,10.42,25.2Z"/>
      <path d="m94.97,166.63c-.24-.63-.54-.73-.62-1.33h11.1c1.5,4.05,2.78,8.16,4.5,12.13,1.87-3.9,3.15-8.03,4.77-12.12h11.23s-.65,1.7-.65,1.7v19.38s.54,1.56.54,1.56h-10.03s.77-1.54.77-1.54c.54-3.93.18-14.48.03-15.05l-6.08,16.58h-5.1c-2.32-5.19-3.9-10.89-6.6-16.06-.14,4.79-.59,9.9.08,14.55.07.45.61,1.08.69,1.52-.36,0-5.15.06-5.45,0,.02-.25.64-1.26.84-1.53l-.05-19.78Z"/>
      <polygon points="128.78 167 128.04 165.29 137.55 165.29 136.99 167 136.99 186.42 137.55 187.94 128.04 187.94 128.75 186.42 128.78 167"/>
      <path d="m154.74,186.4l.59,1.53h-9.77s.62-1.46.62-1.46v-18.28l-5.7-.03-1.35.46.52-3.32h21.08l.43,3.17c-.62-.17-.7-.25-1.46-.29-2.02,0-4.99.02-4.99.02l.03,18.21Z"/>
      <path d="m39.66,165.29c3.32,7.7,5.94,15.43,9.47,22.69h-9.9c.75-.95.15-2.16-.15-3.13l-5.93-13.73c-.21.25-2.37,5.09-3.5,7.57.1-.03,3.5-.07,5.3,0,.52.97.9,2.17,1.2,3.22-.07-.02-7.49,0-7.44-.04.02.07-2.27,5.31-2.32,5.31,0,.08-.05.38.09.8-.03.05-5.28-.04-5.36,0,.38-.76.77-.73,1.2-1.71,2.83-6.39,6.37-13.64,8.84-19.94.06-.32.3-.52-.13-1.04h8.62Z"/>
      <path d="m163.69,186.4v-19.41s-.71-1.7-.71-1.7h19.8c.45,1.12.75,2.32.9,3.6-3.37-.6-7.86-.38-11.03-.15v15.68c3.79.15,8.18.52,11.71-.38l-.53,3.93h-20.85l.71-1.57Z"/>
      <path d="m182.93,178.27l-.78-.23-8.22-.3v-2.85c2.46-.12,6.23.15,9-.6v3.97Z"/>
      <path d="m72.94,186.47v-19.41s-.71-1.7-.71-1.7h19.8c.45,1.12.75,2.32.9,3.6-3.37-.6-7.86-.38-11.03-.15v15.68c3.79.15,8.18.52,11.71-.38l-.52,3.93h-20.85l.71-1.57Z"/>
      <path d="m92.18,178.34l-.78-.23-8.22-.3v-2.85c2.46-.12,6.23.15,9-.6v3.97Z"/>
      <path d="m59.49,184.44c3.78.15,8.17.52,11.7-.38l-.53,3.93h-20.85l1.18-1.57v-19.41s-.69-1.72-.69-1.72h9.79l-.73,1.7.12,17.44Z"/>
      <path d="m194.81,166.83c.56.56.84,1.24.84,2.03s-.28,1.48-.84,2.04c-.56.56-1.23.85-2.03.85s-1.47-.28-2.03-.85c-.55-.56-.83-1.25-.83-2.04s.28-1.47.83-2.03c.56-.56,1.24-.84,2.03-.84s1.47.28,2.03.84Zm.33-.32c-.65-.65-1.44-.97-2.36-.97s-1.7.32-2.35.97c-.65.65-.98,1.44-.98,2.35s.32,1.72.97,2.37c.65.65,1.43.98,2.36.98s1.71-.33,2.36-.98c.65-.66.98-1.44.98-2.37s-.33-1.71-.98-2.35Zm-1.87,2.2c-.14.05-.34.08-.61.08h-.58v-1.33h.55c.36,0,.62.05.78.14.16.09.24.27.24.54,0,.28-.13.47-.38.57Zm-1.84,1.98h.65v-1.45h.51c.34,0,.58.04.72.12.23.14.35.42.35.84v.41s.02.03.02.04c0,.01,0,.02,0,.04h.6l-.02-.05s-.03-.09-.03-.19c0-.1,0-.19,0-.27v-.27c0-.18-.07-.37-.2-.57-.13-.19-.34-.31-.63-.36.23-.04.4-.1.53-.18.24-.15.36-.4.36-.72,0-.46-.19-.77-.57-.93-.21-.09-.55-.13-1-.13h-1.28v3.66Z"/>
    </g>
    <g>
      <path d="m25.87,210.76l4.81-12.53h1.79l5.13,12.53h-1.89l-1.46-3.79h-5.24l-1.38,3.79h-1.76Zm3.61-5.14h4.25l-1.31-3.47c-.4-1.05-.7-1.92-.89-2.6-.16.8-.38,1.6-.67,2.39l-1.38,3.67Z"/>
      <path d="m38.72,210.76v-9.07h1.38v1.29c.67-1,1.63-1.5,2.89-1.5.55,0,1.05.1,1.51.29.46.2.8.46,1.03.77.23.32.39.7.48,1.14.06.29.09.78.09,1.5v5.58h-1.54v-5.52c0-.63-.06-1.1-.18-1.41-.12-.31-.33-.56-.64-.74-.31-.19-.66-.28-1.07-.28-.66,0-1.22.21-1.7.62-.48.42-.71,1.21-.71,2.37v4.96h-1.54Z"/>
      <path d="m52.95,206.73l1.56-.14c.07.63.25,1.14.52,1.54s.69.73,1.26.97c.57.25,1.21.37,1.92.37.63,0,1.19-.09,1.67-.28.48-.19.84-.45,1.08-.77.24-.33.35-.69.35-1.07s-.11-.74-.34-1.03c-.23-.29-.6-.54-1.13-.74-.34-.13-1.08-.33-2.23-.61-1.15-.28-1.96-.54-2.42-.78-.6-.31-1.04-.7-1.34-1.17-.29-.46-.44-.98-.44-1.56,0-.63.18-1.22.54-1.77.36-.55.88-.97,1.57-1.25.69-.28,1.46-.43,2.3-.43.93,0,1.75.15,2.46.45.71.3,1.25.74,1.64,1.32.38.58.59,1.24.62,1.97l-1.59.12c-.09-.79-.38-1.39-.87-1.79-.49-.4-1.22-.61-2.18-.61s-1.73.18-2.19.55c-.46.37-.69.81-.69,1.33,0,.45.16.82.49,1.11.32.29,1.15.59,2.5.89,1.35.3,2.27.57,2.77.8.73.34,1.27.76,1.61,1.28.35.52.52,1.11.52,1.78s-.19,1.29-.57,1.88c-.38.59-.93,1.05-1.65,1.38-.71.33-1.52.49-2.41.49-1.13,0-2.08-.17-2.85-.5s-1.37-.83-1.8-1.49c-.44-.66-.67-1.41-.69-2.25Z"/>
      <path d="m65.12,210.76v-12.53h1.66v6.21l6.22-6.21h2.25l-5.25,5.08,5.49,7.45h-2.19l-4.46-6.34-2.05,2v4.34h-1.66Z"/>
      <path d="m76.95,210.76v-12.53h8.45v1.48h-6.79v3.88h5.88v1.48h-5.88v5.69h-1.66Z"/>
      <path d="m98.27,205.85v-1.47h5.31s0,4.64,0,4.64c-.82.65-1.66,1.14-2.52,1.47-.87.33-1.75.49-2.67.49-1.23,0-2.35-.26-3.35-.79-1.01-.53-1.76-1.29-2.28-2.29s-.77-2.11-.77-3.34.25-2.36.76-3.41c.51-1.06,1.24-1.84,2.2-2.35s2.06-.77,3.31-.77c.91,0,1.72.15,2.46.44.73.29,1.31.7,1.72,1.23s.73,1.21.95,2.05l-1.5.41c-.19-.64-.42-1.14-.7-1.5-.28-.36-.68-.66-1.2-.88-.52-.22-1.09-.33-1.73-.33-.76,0-1.41.12-1.97.35-.55.23-1,.53-1.34.91-.34.38-.6.79-.79,1.24-.32.78-.48,1.62-.48,2.52,0,1.12.19,2.05.58,2.8.38.75.94,1.31,1.68,1.68.73.36,1.51.55,2.34.55.72,0,1.42-.14,2.1-.42s1.2-.57,1.55-.88v-2.33h-3.68Z"/>
      <path d="m105.81,210.76v-9.07h1.38v1.38c.35-.64.68-1.07.98-1.27s.63-.31.99-.31c.52,0,1.05.17,1.58.5l-.53,1.43c-.38-.22-.75-.33-1.13-.33-.34,0-.64.1-.91.3-.27.2-.46.48-.57.84-.17.55-.26,1.14-.26,1.79v4.75h-1.54Z"/>
      <path d="m111.08,206.22c0-1.68.47-2.93,1.4-3.73.78-.67,1.73-1.01,2.85-1.01,1.25,0,2.27.41,3.06,1.23s1.19,1.95,1.19,3.39c0,1.17-.17,2.09-.53,2.76-.35.67-.86,1.19-1.53,1.56-.67.37-1.4.56-2.19.56-1.27,0-2.3-.41-3.08-1.22s-1.17-1.99-1.17-3.52Zm1.58,0c0,1.16.25,2.03.76,2.61.51.58,1.15.87,1.91.87s1.4-.29,1.91-.87c.51-.58.76-1.47.76-2.66,0-1.12-.25-1.97-.76-2.55-.51-.58-1.14-.87-1.9-.87s-1.41.29-1.91.86c-.51.58-.76,1.44-.76,2.61Z"/>
      <path d="m127.34,210.76v-1.33c-.71,1.03-1.67,1.54-2.88,1.54-.54,0-1.04-.1-1.5-.31-.46-.21-.81-.46-1.03-.77s-.38-.69-.47-1.14c-.06-.3-.09-.78-.09-1.44v-5.62h1.54v5.03c0,.8.03,1.34.09,1.62.1.4.3.72.62.95.31.23.7.35,1.16.35s.89-.12,1.3-.35c.4-.24.69-.56.86-.97s.25-1,.25-1.77v-4.86h1.54v9.07h-1.38Z"/>
      <path d="m131.12,214.24v-12.55h1.4v1.18c.33-.46.7-.81,1.12-1.04.42-.23.92-.35,1.51-.35.77,0,1.46.2,2.05.6s1.04.96,1.34,1.69.45,1.52.45,2.39c0,.93-.17,1.76-.5,2.51s-.82,1.31-1.45,1.71c-.63.4-1.3.59-2,.59-.51,0-.97-.11-1.38-.32-.41-.22-.74-.49-1-.82v4.42h-1.54Zm1.39-7.96c0,1.17.24,2.03.71,2.59.47.56,1.04.84,1.72.84s1.27-.29,1.76-.87c.49-.58.73-1.47.73-2.69s-.24-2.02-.71-2.6-1.04-.86-1.71-.86-1.23.31-1.74.92-.76,1.5-.76,2.67Z"/>
      <path d="m147.13,210.76h-1.43v-12.53h1.54v4.47c.65-.81,1.48-1.22,2.49-1.22.56,0,1.09.11,1.58.34.5.23.91.54,1.23.95.32.41.57.9.76,1.47s.27,1.19.27,1.85c0,1.55-.38,2.76-1.15,3.61-.77.85-1.69,1.27-2.77,1.27s-1.91-.45-2.52-1.34v1.14Zm-.02-4.61c0,1.09.15,1.87.44,2.36.48.79,1.14,1.19,1.97,1.19.67,0,1.25-.29,1.74-.88.49-.58.73-1.45.73-2.61s-.23-2.06-.71-2.62c-.47-.56-1.04-.85-1.7-.85s-1.25.29-1.74.88c-.49.58-.74,1.43-.74,2.53Z"/>
      <path d="m155.43,210.76v-9.07h1.38v1.38c.35-.64.68-1.07.98-1.27s.63-.31.99-.31c.52,0,1.04.17,1.58.5l-.53,1.43c-.38-.22-.75-.33-1.13-.33-.34,0-.64.1-.91.3-.27.2-.46.48-.57.84-.17.55-.26,1.14-.26,1.79v4.75h-1.54Z"/>
      <path d="m167.2,209.64c-.57.48-1.12.83-1.64,1.03-.53.2-1.09.3-1.7.3-1,0-1.76-.24-2.3-.73s-.8-1.11-.8-1.87c0-.44.1-.85.3-1.22s.47-.66.79-.88c.33-.22.7-.39,1.11-.5.3-.08.76-.16,1.37-.23,1.24-.15,2.16-.33,2.74-.53,0-.21,0-.34,0-.4,0-.63-.14-1.07-.44-1.32-.39-.35-.98-.52-1.75-.52-.72,0-1.26.13-1.6.38-.34.25-.6.7-.76,1.35l-1.5-.21c.14-.64.36-1.16.67-1.56s.77-.7,1.36-.91c.59-.21,1.28-.32,2.06-.32s1.4.09,1.89.27c.48.18.84.41,1.07.69.23.28.39.62.48,1.05.05.26.08.73.08,1.42v2.05c0,1.43.03,2.33.1,2.71.07.38.2.74.39,1.09h-1.61c-.16-.32-.26-.69-.31-1.12Zm-.13-3.44c-.56.23-1.4.42-2.51.58-.63.09-1.08.19-1.34.31-.26.11-.46.28-.61.5-.14.22-.21.46-.21.73,0,.41.15.75.46,1.03s.77.41,1.36.41,1.12-.13,1.58-.39c.46-.26.8-.61,1.02-1.06.17-.35.25-.86.25-1.54v-.56Z"/>
      <path d="m171.01,210.76v-9.07h1.38v1.29c.67-1,1.63-1.5,2.89-1.5.55,0,1.05.1,1.51.29.46.2.8.46,1.03.77.23.32.39.7.48,1.14.06.29.08.78.08,1.5v5.58h-1.54v-5.52c0-.63-.06-1.1-.18-1.41-.12-.31-.33-.56-.64-.74s-.66-.28-1.07-.28c-.66,0-1.22.21-1.7.62-.48.42-.71,1.21-.71,2.37v4.96h-1.54Z"/>
      <path d="m186.63,210.76v-1.14c-.58.9-1.42,1.35-2.54,1.35-.72,0-1.39-.2-2-.6-.61-.4-1.08-.96-1.41-1.67-.33-.71-.5-1.54-.5-2.47s.15-1.73.45-2.46c.3-.74.75-1.3,1.36-1.7.6-.39,1.28-.59,2.02-.59.55,0,1.03.12,1.46.35.43.23.77.53,1.04.9v-4.5h1.53v12.53h-1.43Zm-4.86-4.53c0,1.16.25,2.03.74,2.61.49.58,1.07.86,1.73.86s1.24-.27,1.71-.82c.47-.55.71-1.39.71-2.52,0-1.24-.24-2.15-.72-2.73s-1.07-.87-1.77-.87-1.25.28-1.71.84c-.46.56-.69,1.44-.69,2.64Z"/>
    </g>
  </g>
</svg>