<?xml version="1.0" encoding="UTF-8"?>
<svg id="uuid-18a69613-6ddf-43ca-baa9-6c8364c5148c" data-name="layer" xmlns="http://www.w3.org/2000/svg" viewBox="0 0 623.6 146.1">
  <path d="m602.1,126.8v-5.7h3.8c1.9,0,4,.4,4,2.7,0,2.8-2.1,3-4.5,3m-3.3,2.3h3.2l4.8,7.9h3.1l-5.2-8c2.7-.3,4.8-1.8,4.8-5,0-3.6-2.2-5.2-6.5-5.2h-7v18.3h2.8v-8h0Zm3.2,16.8c9.9,0,18.3-7.6,18.3-18s-8.4-17.9-18.3-17.9-18.4,7.6-18.4,17.9c0,10.4,8.5,18,18.4,18m-14.7-18c0-8.5,6.5-14.9,14.7-14.9s14.7,6.4,14.7,14.9-6.5,15-14.7,15-14.7-6.4-14.7-15" fill="#fff"/>
  <path d="m177.9,145.9c3,0,5.5-2.4,5.5-5.5V60.2c0-3-2.5-5.5-5.5-5.5h-100.9c-2,0-3.7-1.6-3.7-3.6v-29.2c0-2,1.6-3.6,3.7-3.6h29.3c2,0,3.7,1.6,3.7,3.6v9.1c0,3,2.5,5.5,5.5,5.5h44c3,0,5.5-2.4,5.5-5.5V5.5c0-3-2.5-5.5-5.5-5.5H23.8c-3,0-5.5,2.4-5.5,5.5v62c0,3,2.5,5.5,5.5,5.5h100.9c2,0,3.7,1.6,3.7,3.7v47.4c0,2-1.6,3.6-3.7,3.6H58.7c-2,0-3.7-1.6-3.7-3.6v-27.3c0-3-2.5-5.5-5.5-5.5H5.5c-3,0-5.5,2.4-5.5,5.5v43.7c0,3,2.5,5.5,5.5,5.5" fill="#fff"/>
  <path d="m275.1,93.5c0-.5.4-.9.9-.9.2,0,.5.1.6.3.2.2,51.3,51,51.8,51.5.3.3,1.6,1.6,3.8,1.6h65.7c3,0,5.5-2.4,5.5-5.5v-43.7c0-3-2.5-5.5-5.5-5.5h-47.4c-2.1,0-3.5-1.2-3.8-1.5-.7-.7-34.3-34.2-34.5-34.3-.2-.2-.3-.4-.3-.6,0-.3.1-.5.3-.6.2-.2,15.8-15.7,16.1-16,.9-.9,2.3-1.6,3.9-1.6h47.5c3,0,5.5-2.4,5.5-5.5V5.7c0-3-2.5-5.5-5.5-5.5h-47.4c-2.2,0-3.5,1.3-3.8,1.6s-51.6,51.3-51.8,51.5c-.2.2-.4.3-.6.3-.5,0-.9-.4-.9-.9V5.8c0-3-2.5-5.5-5.5-5.5h-53.2c-3,0-5.5,2.4-5.5,5.5v43.7c0,3,2.5,5.5,5.5,5.5,2,0,3.7,1.6,3.7,3.6v29.2c0,2-1.6,3.6-3.7,3.6-3,0-5.5,2.4-5.5,5.5v43.7c0,3,2.5,5.5,5.5,5.5h53.2c3,0,5.5-2.5,5.5-5.5" fill="#fff"/>
  <path d="m489.7,145.9c3,0,5.5-2.4,5.5-5.5v-43.7c0-3-2.5-5.5-5.5-5.5-2,0-3.7-1.6-3.7-3.6v-10.9c0-2,1.7-3.7,3.7-3.7h20.1c2,0,3.7,1.6,3.7,3.7,0,3,2.5,5.5,5.5,5.5h44.1c3,0,5.5-2.4,5.5-5.5v-25.5c0-3-2.5-5.5-5.5-5.5h-44.1c-3,0-5.5,2.4-5.5,5.5,0,2-1.6,3.6-3.7,3.6h-20.1c-2,0-3.7-1.6-3.7-3.6v-29.2c0-2,1.7-3.6,3.7-3.6h56.8c2,0,3.7,1.6,3.7,3.6v9.1c0,3,2.5,5.5,5.5,5.5h62.4c3,0,5.5-2.4,5.5-5.5V5.6c0-3-2.5-5.5-5.5-5.5h-181.6c-3,0-5.5,2.4-5.5,5.5v43.7c0,3,2.5,5.5,5.5,5.5,2,0,3.7,1.6,3.7,3.6v29.2c0,2-1.6,3.6-3.7,3.6-3,0-5.5,2.4-5.5,5.5v43.7c0,3,2.5,5.5,5.5,5.5" fill="#fff"/>
</svg>