<?xml version="1.0" encoding="UTF-8"?>
<svg id="uuid-e75cc12e-5f08-45c5-b8b0-822214edd63d" data-name="Layer 2" xmlns="http://www.w3.org/2000/svg" viewBox="0 0 16 16">
  <g id="uuid-9fb1f416-6e66-4e10-bfb8-9fd81e11e98b" data-name="Layer 1">
    <rect width="16" height="16" rx="3" ry="3" fill="#376eb5"/>
    <g>
      <path d="m4.99,9.67c.07,0,.12-.06.12-.13v-1.84c0-.07-.06-.13-.12-.13h-2.27s-.08-.04-.08-.08v-.67s.04-.08.08-.08h.66s.08.04.08.08v.21c0,.07.06.13.12.13h.99c.07,0,.12-.06.12-.13v-.59c0-.07-.06-.13-.12-.13H1.53c-.07,0-.12.06-.12.13v1.42c0,.07.06.13.12.13h2.27s.08.04.08.08v1.09s-.04.08-.08.08h-1.48s-.08-.04-.08-.08v-.63c0-.07-.06-.13-.12-.13h-.99c-.07,0-.12.06-.12.13v1c0,.07.06.13.12.13" fill="#fff"/>
      <path d="m7.18,8.47s0-.02.02-.02c0,0,.01,0,.01,0,0,0,1.15,1.17,1.16,1.18,0,0,.04.04.09.04h1.47c.07,0,.12-.06.12-.13v-1c0-.07-.06-.13-.12-.13h-1.06s-.08-.03-.09-.03c-.02-.02-.77-.79-.77-.79,0,0,0,0,0-.01,0,0,0-.01,0-.01,0,0,.35-.36.36-.37.02-.02.05-.04.09-.04h1.07c.07,0,.12-.06.12-.13v-.59c0-.07-.06-.13-.12-.13h-1.06s-.08.03-.09.04-1.16,1.18-1.16,1.18,0,0-.01,0c-.01,0-.02,0-.02-.02v-1.08c0-.07-.06-.13-.12-.13h-1.19c-.07,0-.12.06-.12.13v1c0,.07.06.13.12.13.04,0,.08.04.08.08v.67s-.04.08-.08.08c-.07,0-.12.06-.12.13v1c0,.07.06.13.12.13h1.19c.07,0,.12-.06.12-.13" fill="#fff"/>
      <path d="m11.99,9.67c.07,0,.12-.06.12-.13v-1c0-.07-.06-.13-.12-.13-.04,0-.08-.04-.08-.08v-.25s.04-.08.08-.08h.45s.08.04.08.08c0,.07.06.13.12.13h.99c.07,0,.12-.06.12-.13v-.59c0-.07-.06-.13-.12-.13h-.99c-.07,0-.12.06-.12.13,0,.05-.04.08-.08.08h-.45s-.08-.04-.08-.08v-.67s.04-.08.08-.08h1.28s.08.04.08.08v.21c0,.07.06.13.12.13h1.4c.07,0,.12-.06.12-.13v-.59c0-.07-.06-.13-.12-.13h-4.08c-.07,0-.12.06-.12.13v1c0,.07.06.13.12.13.04,0,.08.04.08.08v.67s-.04.08-.08.08c-.07,0-.12.06-.12.13v1c0,.07.06.13.12.13" fill="#fff"/>
    </g>
  </g>
</svg>