<?xml version="1.0" encoding="UTF-8"?>
<svg id="uuid-cc1a662d-9f3c-4e19-ab03-d65a12b5ea4c" data-name="Layer 2" xmlns="http://www.w3.org/2000/svg" viewBox="0 0 303.76 121.88">
  <g id="uuid-495815d6-4ba4-40d8-a72a-be35f5c0fbc3" data-name="Layer 1">
    <g>
      <rect x="1.88" y="1.88" width="300" height="100" rx="11.29" ry="11.29" fill="none" stroke="#fff" stroke-miterlimit="10" stroke-width="3.76"/>
      <line x1="25.1" y1="16.88" x2="25.1" y2="86.88" fill="none" stroke="#fff" stroke-linecap="round" stroke-miterlimit="10" stroke-width="5"/>
      <line x1="37.46" y1="16.88" x2="37.46" y2="86.88" fill="none" stroke="#fff" stroke-linecap="round" stroke-miterlimit="10" stroke-width="5"/>
      <line x1="49.82" y1="16.88" x2="49.82" y2="86.88" fill="none" stroke="#fff" stroke-linecap="round" stroke-miterlimit="10" stroke-width="5"/>
      <line x1="62.17" y1="16.88" x2="62.17" y2="86.88" fill="none" stroke="#fff" stroke-linecap="round" stroke-miterlimit="10" stroke-width="5"/>
      <line x1="74.53" y1="16.88" x2="74.53" y2="86.88" fill="none" stroke="#fff" stroke-linecap="round" stroke-miterlimit="10" stroke-width="5"/>
      <line x1="86.89" y1="16.88" x2="86.89" y2="86.88" fill="none" stroke="#fff" stroke-linecap="round" stroke-miterlimit="10" stroke-width="5"/>
      <line x1="99.25" y1="16.88" x2="99.25" y2="86.88" fill="none" stroke="#fff" stroke-linecap="round" stroke-miterlimit="10" stroke-width="5"/>
      <line x1="111.61" y1="16.88" x2="111.61" y2="86.88" fill="none" stroke="#fff" stroke-linecap="round" stroke-miterlimit="10" stroke-width="5"/>
      <line x1="123.97" y1="16.88" x2="123.97" y2="86.88" fill="none" stroke="#fff" stroke-linecap="round" stroke-miterlimit="10" stroke-width="5"/>
      <rect x="136.95" y="15.67" width="40" height="20" fill="#fff"/>
      <path d="m136.95,51.88h40v10c0,5.52-4.48,10-10,10h-20c-5.52,0-10-4.48-10-10v-10h0Z" fill="#fff"/>
      <circle cx="279.96" cy="25.67" r="10" fill="#fff"/>
      <rect x="188.86" y="15.67" width="40" height="20" fill="#fff"/>
      <rect x="188.86" y="51.88" width="40" height="20" fill="#fff"/>
      <path d="m17.08,101.88h20v10c0,5.52-4.48,10-10,10h0c-5.52,0-10-4.48-10-10v-10h0Z" fill="#fff"/>
      <path d="m269.96,101.88h20v10c0,5.52-4.48,10-10,10h0c-5.52,0-10-4.48-10-10v-10h0Z" fill="#fff"/>
    </g>
  </g>
</svg>