<?xml version="1.0" encoding="UTF-8"?>
<svg id="uuid-938027ac-0bb2-4097-9b2a-7e75e3b5a8eb" data-name="Layer 2" xmlns="http://www.w3.org/2000/svg" viewBox="0 0 203.07 121.54">
  <g id="uuid-c970fcdd-872f-486e-acb7-2f9c737af74b" data-name="Layer 1">
    <g>
      <rect x="1.54" y="1.54" width="200" height="100" rx="9.21" ry="9.21" fill="none" stroke="#fff" stroke-miterlimit="10" stroke-width="3.07"/>
      <line x1="24.75" y1="16.54" x2="24.75" y2="86.54" fill="none" stroke="#fff" stroke-linecap="round" stroke-miterlimit="10" stroke-width="5"/>
      <line x1="37.11" y1="16.54" x2="37.11" y2="86.54" fill="none" stroke="#fff" stroke-linecap="round" stroke-miterlimit="10" stroke-width="5"/>
      <line x1="49.47" y1="16.54" x2="49.47" y2="86.54" fill="none" stroke="#fff" stroke-linecap="round" stroke-miterlimit="10" stroke-width="5"/>
      <line x1="61.83" y1="16.54" x2="61.83" y2="86.54" fill="none" stroke="#fff" stroke-linecap="round" stroke-miterlimit="10" stroke-width="5"/>
      <line x1="74.19" y1="16.54" x2="74.19" y2="86.54" fill="none" stroke="#fff" stroke-linecap="round" stroke-miterlimit="10" stroke-width="5"/>
      <line x1="86.55" y1="16.54" x2="86.55" y2="86.54" fill="none" stroke="#fff" stroke-linecap="round" stroke-miterlimit="10" stroke-width="5"/>
      <line x1="98.91" y1="16.54" x2="98.91" y2="86.54" fill="none" stroke="#fff" stroke-linecap="round" stroke-miterlimit="10" stroke-width="5"/>
      <line x1="111.27" y1="16.54" x2="111.27" y2="86.54" fill="none" stroke="#fff" stroke-linecap="round" stroke-miterlimit="10" stroke-width="5"/>
      <line x1="123.63" y1="16.54" x2="123.63" y2="86.54" fill="none" stroke="#fff" stroke-linecap="round" stroke-miterlimit="10" stroke-width="5"/>
      <rect x="136.6" y="42.46" width="40" height="15" fill="#fff"/>
      <path d="m136.6,69.04h40v6.34c0,4.78-3.88,8.66-8.66,8.66h-22.68c-4.78,0-8.66-3.88-8.66-8.66v-6.34h0Z" fill="#fff"/>
      <circle cx="184.26" cy="20.88" r="10" fill="#fff"/>
      <path d="m16.74,101.54h20v10c0,5.52-4.48,10-10,10h0c-5.52,0-10-4.48-10-10v-10h0Z" fill="#fff"/>
      <path d="m174.26,101.54h20v10c0,5.52-4.48,10-10,10h0c-5.52,0-10-4.48-10-10v-10h0Z" fill="#fff"/>
    </g>
  </g>
</svg>