<?xml version="1.0" encoding="UTF-8"?>
<svg id="uuid-c6136274-5b10-4581-8ace-85ce41d1c819" data-name="Layer 2" xmlns="http://www.w3.org/2000/svg" viewBox="0 0 92.42 49.79">
  <g id="uuid-4167e3ef-61b3-457a-8d8e-258a0cacf6b8" data-name="Layer 1">
    <g>
      <path d="m46.21,49.76c-13.01,0-26.03-.05-39.04.03-4.29.02-7.26-3.88-7.15-7.27.15-4.89.05-9.79-.01-14.68-.04-3.04,1.28-5.24,3.84-6.76,1.06-.63,2.24-.74,3.43-.74,21.69-.01,43.38-.01,65.07-.02.95,0,1.91-.04,2.86,0,.46.01.6-.11.6-.59,0-5.91.03-11.82.04-17.74,0-1.27.82-2.05,2.09-1.98.75.04,1.49.72,1.51,1.47.04,1.45.03,2.9.03,4.36,0,4.67.03,9.33.01,14,0,.46.21.46.52.46,1.66,0,3.32.01,4.98,0,2.27,0,4.23.69,5.72,2.49,1.01,1.22,1.68,2.6,1.68,4.19.03,5.5.07,11-.05,16.49-.04,2.03-1.18,3.67-2.79,4.93-1.25.98-2.65,1.37-4.23,1.37-13.04-.01-26.07,0-39.11,0Zm-.03-25.8v-.03c-11.79,0-23.58,0-35.37,0-1.27,0-2.53.01-3.8.07-1.97.1-3.3,1.38-3.31,3.18-.02,5.25-.02,10.5,0,15.74,0,1.6,1.17,2.9,2.76,3.11.55.07,1.12.11,1.67.11,25.24,0,50.48,0,75.71,0,.5,0,1-.06,1.49-.04,2.17.05,3.49-1.92,3.47-3.74-.06-4.94-.02-9.87-.03-14.81,0-.29-.02-.58-.09-.86-.42-1.78-1.75-2.75-3.84-2.76-1.87-.02-3.74.02-5.6.02-11.02,0-22.04,0-33.06,0Z"/>
      <path d="m7.1,49.77c-1.57,0-2.98-.4-4.23-1.37-1.62-1.26-2.75-2.9-2.79-4.93C-.04,37.97,0,32.47.03,26.97c0-1.58.67-2.96,1.68-4.19,1.49-1.8,3.45-2.49,5.72-2.49,1.66,0,3.32,0,4.98,0,.32,0,.52,0,.52-.46-.01-4.67,0-9.33.01-14,0-1.45,0-2.9.03-4.36.02-.75.76-1.42,1.51-1.47,1.27-.07,2.09.7,2.09,1.98.02,5.91.04,11.82.04,17.74,0,.48.14.6.6.59.95-.03,1.91,0,2.86,0,21.69,0,43.38,0,65.07.02,1.18,0,2.37.11,3.43.74,2.56,1.52,3.88,3.72,3.84,6.76-.07,4.89-.16,9.79-.01,14.68.1,3.39-2.87,7.3-7.15,7.27-13.01-.07-26.03-.03-39.04-.03-13.04,0-26.07,0-39.11,0Zm6.07-25.81c-1.87,0-3.74-.04-5.6-.02-2.09.02-3.42.99-3.84,2.76-.07.28-.09.57-.09.86,0,4.94.03,9.87-.03,14.81-.02,1.82,1.29,3.79,3.47,3.74.5-.01.99.04,1.49.04,25.24,0,50.48,0,75.71,0,.56,0,1.12-.04,1.67-.11,1.59-.21,2.75-1.51,2.76-3.11.01-5.25.01-10.5,0-15.74,0-1.8-1.34-3.08-3.31-3.18-1.26-.06-2.53-.07-3.8-.07-11.79,0-23.58,0-35.37,0v.03c-11.02,0-22.04,0-33.06,0Z"/>
      <g>
        <line x1="7" y1="27.43" x2="61.94" y2="27.43" fill="none" stroke="#1d1e1b" stroke-linecap="round" stroke-miterlimit="10" stroke-width="3"/>
        <line x1="7" y1="32.16" x2="61.94" y2="32.16" fill="none" stroke="#1d1e1b" stroke-linecap="round" stroke-miterlimit="10" stroke-width="3"/>
        <line x1="7" y1="36.89" x2="61.94" y2="36.89" fill="none" stroke="#1d1e1b" stroke-linecap="round" stroke-miterlimit="10" stroke-width="3"/>
        <line x1="7" y1="41.63" x2="61.94" y2="41.63" fill="none" stroke="#1d1e1b" stroke-linecap="round" stroke-miterlimit="10" stroke-width="3"/>
      </g>
      <rect x="68.62" y="26.11" width="16" height="8.94" fill="none" stroke="#1d1e1b" stroke-linecap="round" stroke-miterlimit="10"/>
      <rect x="68.62" y="37.97" width="4.47" height="5" fill="#040509"/>
      <rect x="74.38" y="37.97" width="4.47" height="5" fill="#040509"/>
      <circle cx="83.24" cy="40.47" r="2.5" fill="#040509"/>
    </g>
  </g>
</svg>